<?xml version="1.0" encoding="UTF-8"?>
<!DOCTYPE svg PUBLIC "-//W3C//DTD SVG 1.1//EN" "http://www.w3.org/Graphics/SVG/1.1/DTD/svg11.dtd">
<svg version="1.2" width="279.4mm" height="215.9mm" viewBox="0 0 27940 21590" preserveAspectRatio="xMidYMid" fill-rule="evenodd" stroke-width="28.222" stroke-linejoin="round" xmlns="http://www.w3.org/2000/svg" xmlns:ooo="http://xml.openoffice.org/svg/export" xmlns:xlink="http://www.w3.org/1999/xlink" xmlns:presentation="http://sun.com/xmlns/staroffice/presentation" xmlns:smil="http://www.w3.org/2001/SMIL20/" xmlns:anim="urn:oasis:names:tc:opendocument:xmlns:animation:1.0" xml:space="preserve">
 <defs class="ClipPathGroup">
  <clipPath id="presentation_clip_path" clipPathUnits="userSpaceOnUse">
   <rect x="0" y="0" width="27940" height="21590"/>
  </clipPath>
  <clipPath id="presentation_clip_path_shrink" clipPathUnits="userSpaceOnUse">
   <rect x="27" y="21" width="27885" height="21547"/>
  </clipPath>
 </defs>
 <defs class="TextShapeIndex">
  <g ooo:slide="id1" ooo:id-list="id3 id4 id5"/>
 </defs>
 <defs class="EmbeddedBulletChars">
  <g id="bullet-char-template-57356" transform="scale(0.00048828125,-0.00048828125)">
   <path d="M 580,1141 L 1163,571 580,0 -4,571 580,1141 Z"/>
  </g>
  <g id="bullet-char-template-57354" transform="scale(0.00048828125,-0.00048828125)">
   <path d="M 8,1128 L 1137,1128 1137,0 8,0 8,1128 Z"/>
  </g>
  <g id="bullet-char-template-10146" transform="scale(0.00048828125,-0.00048828125)">
   <path d="M 174,0 L 602,739 174,1481 1456,739 174,0 Z M 1358,739 L 309,1346 659,739 1358,739 Z"/>
  </g>
  <g id="bullet-char-template-10132" transform="scale(0.00048828125,-0.00048828125)">
   <path d="M 2015,739 L 1276,0 717,0 1260,543 174,543 174,936 1260,936 717,1481 1274,1481 2015,739 Z"/>
  </g>
  <g id="bullet-char-template-10007" transform="scale(0.00048828125,-0.00048828125)">
   <path d="M 0,-2 C -7,14 -16,27 -25,37 L 356,567 C 262,823 215,952 215,954 215,979 228,992 255,992 264,992 276,990 289,987 310,991 331,999 354,1012 L 381,999 492,748 772,1049 836,1024 860,1049 C 881,1039 901,1025 922,1006 886,937 835,863 770,784 769,783 710,716 594,584 L 774,223 C 774,196 753,168 711,139 L 727,119 C 717,90 699,76 672,76 641,76 570,178 457,381 L 164,-76 C 142,-110 111,-127 72,-127 30,-127 9,-110 8,-76 1,-67 -2,-52 -2,-32 -2,-23 -1,-13 0,-2 Z"/>
  </g>
  <g id="bullet-char-template-10004" transform="scale(0.00048828125,-0.00048828125)">
   <path d="M 285,-33 C 182,-33 111,30 74,156 52,228 41,333 41,471 41,549 55,616 82,672 116,743 169,778 240,778 293,778 328,747 346,684 L 369,508 C 377,444 397,411 428,410 L 1163,1116 C 1174,1127 1196,1133 1229,1133 1271,1133 1292,1118 1292,1087 L 1292,965 C 1292,929 1282,901 1262,881 L 442,47 C 390,-6 338,-33 285,-33 Z"/>
  </g>
  <g id="bullet-char-template-9679" transform="scale(0.00048828125,-0.00048828125)">
   <path d="M 813,0 C 632,0 489,54 383,161 276,268 223,411 223,592 223,773 276,916 383,1023 489,1130 632,1184 813,1184 992,1184 1136,1130 1245,1023 1353,916 1407,772 1407,592 1407,412 1353,268 1245,161 1136,54 992,0 813,0 Z"/>
  </g>
  <g id="bullet-char-template-8226" transform="scale(0.00048828125,-0.00048828125)">
   <path d="M 346,457 C 273,457 209,483 155,535 101,586 74,649 74,723 74,796 101,859 155,911 209,963 273,989 346,989 419,989 480,963 531,910 582,859 608,796 608,723 608,648 583,586 532,535 482,483 420,457 346,457 Z"/>
  </g>
  <g id="bullet-char-template-8211" transform="scale(0.00048828125,-0.00048828125)">
   <path d="M -4,459 L 1135,459 1135,606 -4,606 -4,459 Z"/>
  </g>
  <g id="bullet-char-template-61548" transform="scale(0.00048828125,-0.00048828125)">
   <path d="M 173,740 C 173,903 231,1043 346,1159 462,1274 601,1332 765,1332 928,1332 1067,1274 1183,1159 1299,1043 1357,903 1357,740 1357,577 1299,437 1183,322 1067,206 928,148 765,148 601,148 462,206 346,322 231,437 173,577 173,740 Z"/>
  </g>
 </defs>
 <g>
  <g id="id2" class="Master_Slide">
   <g id="bg-id2" class="Background"/>
   <g id="bo-id2" class="BackgroundObjects"/>
  </g>
 </g>
 <g class="SlideGroup">
  <g>
   <g id="container-id1">
    <g id="id1" class="Slide" clip-path="url(#presentation_clip_path)">
     <g class="Page">
      <g id="bg-id1" class="Background">
       <defs>
        <linearGradient id="Gradient_1" gradientUnits="userSpaceOnUse" x1="13969" y1="0" x2="13969" y2="21589">
         <stop offset="0" stop-color="rgb(22,130,83)"/>
         <stop offset="1" stop-color="rgb(52,101,164)"/>
        </linearGradient>
       </defs>
       <path fill="url(#Gradient_1)" stroke="none" d="M 13970,21589 L 0,21589 0,0 27939,0 27939,21589 13970,21589 Z"/>
      </g>
      <g class="com.sun.star.drawing.CustomShape">
       <g id="id3">
        <rect class="BoundingBox" stroke="none" fill="none" x="1189" y="4386" width="10811" height="11062"/>
        <path fill="rgb(0,0,0)" stroke="none" d="M 11998,9917 C 11998,10887 11748,11841 11274,12681 10800,13522 10118,14220 9296,14705 8474,15191 7543,15446 6594,15446 5645,15446 4714,15191 3892,14705 3070,14220 2388,13522 1914,12681 1440,11841 1190,10887 1190,9917 1190,8946 1440,7992 1914,7152 2388,6311 3070,5613 3892,5128 4714,4642 5645,4387 6594,4387 7543,4387 8474,4642 9296,5128 10118,5613 10800,6311 11274,7152 11748,7992 11998,8946 11998,9916 L 11998,9917 Z"/>
        <path fill="none" stroke="rgb(52,101,164)" d="M 11998,9917 C 11998,10887 11748,11841 11274,12681 10800,13522 10118,14220 9296,14705 8474,15191 7543,15446 6594,15446 5645,15446 4714,15191 3892,14705 3070,14220 2388,13522 1914,12681 1440,11841 1190,10887 1190,9917 1190,8946 1440,7992 1914,7152 2388,6311 3070,5613 3892,5128 4714,4642 5645,4387 6594,4387 7543,4387 8474,4642 9296,5128 10118,5613 10800,6311 11274,7152 11748,7992 11998,8946 11998,9916 L 11998,9917 Z"/>
       </g>
      </g>
      <g class="com.sun.star.drawing.CustomShape">
       <g id="id4">
        <rect class="BoundingBox" stroke="none" fill="none" x="16236" y="4376" width="10811" height="11062"/>
        <path fill="rgb(0,0,0)" stroke="none" d="M 27045,9907 C 27045,10877 26795,11831 26321,12671 25847,13512 25165,14210 24343,14695 23521,15181 22590,15436 21641,15436 20692,15436 19761,15181 18939,14695 18117,14210 17435,13512 16961,12671 16487,11831 16237,10877 16237,9907 16237,8936 16487,7982 16961,7142 17435,6301 18117,5603 18939,5118 19761,4632 20692,4377 21641,4377 22590,4377 23521,4632 24343,5118 25165,5603 25847,6301 26321,7142 26795,7982 27045,8936 27045,9906 L 27045,9907 Z"/>
        <path fill="none" stroke="rgb(52,101,164)" d="M 27045,9907 C 27045,10877 26795,11831 26321,12671 25847,13512 25165,14210 24343,14695 23521,15181 22590,15436 21641,15436 20692,15436 19761,15181 18939,14695 18117,14210 17435,13512 16961,12671 16487,11831 16237,10877 16237,9907 16237,8936 16487,7982 16961,7142 17435,6301 18117,5603 18939,5118 19761,4632 20692,4377 21641,4377 22590,4377 23521,4632 24343,5118 25165,5603 25847,6301 26321,7142 26795,7982 27045,8936 27045,9906 L 27045,9907 Z"/>
       </g>
      </g>
      <g class="com.sun.star.drawing.CustomShape">
       <g id="id5">
        <rect class="BoundingBox" stroke="none" fill="none" x="12794" y="17314" width="1372" height="1404"/>
        <path fill="rgb(0,0,0)" stroke="none" d="M 14164,18016 C 14164,18138 14132,18259 14072,18366 14012,18472 13926,18561 13822,18622 13718,18684 13600,18716 13480,18716 13359,18716 13241,18684 13137,18622 13033,18561 12947,18472 12887,18366 12827,18259 12795,18138 12795,18016 12795,17893 12827,17772 12887,17665 12947,17559 13033,17470 13137,17409 13241,17347 13359,17315 13480,17315 13600,17315 13718,17347 13822,17409 13926,17470 14012,17559 14072,17665 14132,17772 14164,17893 14164,18016 L 14164,18016 Z"/>
        <path fill="none" stroke="rgb(52,101,164)" d="M 14164,18016 C 14164,18138 14132,18259 14072,18366 14012,18472 13926,18561 13822,18622 13718,18684 13600,18716 13480,18716 13359,18716 13241,18684 13137,18622 13033,18561 12947,18472 12887,18366 12827,18259 12795,18138 12795,18016 12795,17893 12827,17772 12887,17665 12947,17559 13033,17470 13137,17409 13241,17347 13359,17315 13480,17315 13600,17315 13718,17347 13822,17409 13926,17470 14012,17559 14072,17665 14132,17772 14164,17893 14164,18016 Z"/>
       </g>
      </g>
     </g>
    </g>
   </g>
  </g>
 </g>
</svg>